<svg width="305" height="331" viewBox="0 0 305 331" fill="none" xmlns="http://www.w3.org/2000/svg">
<rect x="39.5" y="0.5" width="224" height="330" fill="white" stroke="#505050"/>
<path d="M279.5 44C279.5 49.2467 275.247 53.5 270 53.5L240 53.5C234.753 53.5 230.5 49.2467 230.5 44V14C230.5 8.7533 234.753 4.5 240 4.5L270 4.5C275.247 4.5 279.5 8.7533 279.5 14V44Z" fill="white" stroke="#505050"/>
<path d="M271 23.6924L264 43.6924L260 34.6924L251 30.6924L271 23.6924Z" stroke="#505050" stroke-linejoin="round"/>
<path d="M304.5 160C304.5 242.567 237.567 309.5 155 309.5C72.4334 309.5 5.5 242.567 5.5 160C5.5 77.4334 72.4334 10.5 155 10.5C237.567 10.5 304.5 77.4334 304.5 160Z" fill="white" stroke="#505050"/>
<path d="M49.5 237C49.5 242.247 45.2467 246.5 40 246.5H10C4.7533 246.5 0.5 242.247 0.5 237L0.5 207C0.5 201.753 4.7533 197.5 10 197.5H40C45.2467 197.5 49.5 201.753 49.5 207L49.5 237Z" fill="white" stroke="#505050"/>
<path d="M34 221.5C34.0034 222.82 33.6951 224.122 33.1 225.3C32.3944 226.712 31.3098 227.899 29.9674 228.729C28.6251 229.559 27.0782 229.999 25.5 230C24.1801 230.003 22.8781 229.695 21.7 229.1L16 231L17.9 225.3C17.3049 224.122 16.9966 222.82 17 221.5C17.0006 219.922 17.4406 218.375 18.2707 217.033C19.1008 215.69 20.2883 214.606 21.7 213.9C22.8781 213.305 24.1801 212.997 25.5 213H26C28.0843 213.115 30.053 213.995 31.5291 215.471C33.0052 216.947 33.885 218.916 34 221V221.5Z" stroke="#505050" stroke-linejoin="round"/>
</svg>
